# xmcd CD database file
#
# Track frame offsets:
#	151
#	10705
#	24078
#	37734
#	50744
#	63159
#	78956
#	88672
#	102105
#	120380
#	134545
#	147888
#	163457
#	171954
#	184463
#	201564
#	215569
#
# Disc length: 3073 seconds
#
# Revision: 0
# Processed by: cddbd v1.5.2PL0 Copyright (c) Steve Scherf et al.
# Submitted via: CDex 2.02
#
DISCID=eb0bff11
DTITLE=Lightnin' Wells - Ragged But Right
DYEAR=2002
DGENRE=Blues
TTITLE0=I'm Ragged But Right
TTITLE1=I Mean It's Just Too Bad
TTITLE2=I've Been All Around This World
TTITLE3=Sweet Substitute
TTITLE4=Duck's Yas Yas Yas
TTITLE5=Rainbow
TTITLE6=The Old Familiar Tune
TTITLE7=Guitar Waltz/Knoxville Blues
TTITLE8=Oh Lordy Mama Blues
TTITLE9=Chicken
TTITLE10=Breeze
TTITLE11=Crazy Blues
TTITLE12=Black and White Rag
TTITLE13=Hurry Home Sweet Mama
TTITLE14=Just A Closer Walk With Thee
TTITLE15=Salty Dog
TTITLE16=Lost Lover Blues
EXTD=YEAR: 2002
EXTT0=
EXTT1=
EXTT2=
EXTT3=
EXTT4=
EXTT5=
EXTT6=
EXTT7=
EXTT8=
EXTT9=
EXTT10=
EXTT11=
EXTT12=
EXTT13=
EXTT14=
EXTT15=
EXTT16=
PLAYORDER=
